<svg xmlns="http://www.w3.org/2000/svg" xmlns:xlink="http://www.w3.org/1999/xlink" width="500" height="500" viewBox="0 0 500 500">
	<g id="i_0" transform-origin="250 250" transform="scale(0.11602906250000002) rotate(0)">
		<path d="M-256.474076,0c0-142.624212,114.827355-258.24398,256.474076-258.24398" transform="matrix(.781333 0 0 0.775978 250 250)" fill="none" stroke="#000" stroke-width="15" stroke-linecap="round"/>

		<path d="M-223.758356,-126.303281c22.863455-40.977749,56.508272-75.038159,97.062973-98.283033" transform="matrix(.890752 0 0 0.884659 250 250)" fill="none" stroke="#000" stroke-width="15" stroke-linecap="round"/>

	</g>
	<g id="s_1" transform-origin="250 250" transform="scale(0.17850625000000003) rotate(90)">
		<path d="M-256.474076,0c.000001-60.904127,14.222864-106.103045,38.547759-136.452308q47.29484-59.008006,22.778964,57.092274" transform="matrix(.83338 0 0 0.827681 250 250)" fill="none" stroke="#000" stroke-width="15" stroke-linecap="round"/>

		<path d="M-256.474076,0c.000001-44.500146,1.163422-66.178293,20.847157-102.729051" transform="matrix(0 0.83 0.827681 0 250 250)" fill="none" stroke="#000" stroke-width="15" stroke-linecap="round"/>

		<path d="M164.973115,54.429657q-25.543788,13.283566-41.378413,68.251887q0-62.330197-48.946898-24.994161" transform="translate(.000001 0)" fill="none" stroke="#000" stroke-width="12" stroke-linecap="round" stroke-linejoin="round"/>

	</g>
	<g id="n_2" transform-origin="250 250" transform="scale(0.274625) rotate(180)">
		<path d="M0,-258.24398c141.646721,0,256.474076,115.619768,256.474076,258.24398" transform="matrix(.781333 0 0 0.775978 250 250)" fill="none" stroke="#000" stroke-width="15" stroke-linecap="round"/>

		<path d="M-225.656467,-123.246253c23.348185-43.393131,58.681702-79.293447,101.530486-103.200033" transform="matrix(.629857 0.629857-.625548 0.625548 250 250)" fill="none" stroke="#000" stroke-width="15" stroke-linecap="round"/>

		<path d="M-225.656467,-123.246253c23.348185-43.393131,58.681702-79.293447,101.530486-103.200033" transform="matrix(.729661 0.510914-.50742 0.72467 250 250)" fill="none" stroke="#000" stroke-width="15" stroke-linecap="round"/>

		<path d="M-225.656467,-123.246253c23.348185-43.393131,58.681702-79.293447,101.530486-103.200033" transform="matrix(.510914 0.729661-.72467 0.50742 250 250)" fill="none" stroke="#000" stroke-width="15" stroke-linecap="round"/>

		<path d="M-300.149674,-27.102399c15.82665-131.50206,60.335907-140.235523,52.005752-96.67506-7.519292,39.320257-.000001,52.677758-.000001,52.677758C-218.972531,-149.103305,-141.646721,-258.24398,0,-258.24398" transform="matrix(.781333 0 0 0.775978 250 250)" fill="none" stroke="#000" stroke-width="15" stroke-linecap="round" stroke-linejoin="round"/>

	</g>
	<g id="i_3" transform-origin="250 250" transform="scale(0.42250000000000004) rotate(0)">
		<path d="M-256.474076,0c0-142.624212,114.827355-258.24398,256.474076-258.24398" transform="matrix(.781333 0 0 0.775978 250 250)" fill="none" stroke="#000" stroke-width="15" stroke-linecap="round"/>

		<path d="M-223.758356,-126.303281c22.863455-40.977749,56.508272-75.038159,97.062973-98.283033" transform="matrix(.890752 0 0 0.884659 250 250)" fill="none" stroke="#000" stroke-width="15" stroke-linecap="round"/>

	</g>
	<g id="l_4" transform-origin="250 250" transform="scale(0.65) rotate(90)">
		<path d="M-256.474076,0c0-142.624212,114.827355-258.24398,256.474076-258.24398s256.474076,115.619768,256.474076,258.24398-114.827355,258.24398-256.474076,258.24398" transform="matrix(.781333 0 0 0.775978 250 250)" fill="none" stroke="#000" stroke-width="15" stroke-linecap="round"/>

		<path d="M-256.474076,0c0-74.01943,30.927892-140.765415,80.481568-187.85095C-130.063768,-231.492097,-68.134591,-258.24398,0,-258.24398c3.4645.010478,9.04883,1.165059,13.269203,7.438076c2.70123,4.015015.011689,15.195503-18.536172,20.598743-28.163487,8.204401-31.694902,3.318995-122.432302,24.224774-23.840555,5.492833-48.293235,18.13144-48.293235,18.13144" transform="matrix(-.781333 0 0-.775978 250 250)" fill="none" stroke="#000" stroke-width="15" stroke-linecap="round"/>

		<path d="M-224.713054,-124.57673c23.431026-42.759332,58.549936-78.116158,101.019616-101.70343" transform="matrix(0 0.890752-.884659 0 250 250)" fill="none" stroke="#000" stroke-width="15" stroke-linecap="round"/>

	</g>
	<g id="o_5" transform-origin="250 250" transform="scale(1.0) rotate(0)">
		<path d="M-256.474076,0c0-142.624212,114.827355-258.24398,256.474076-258.24398s256.474076,115.619768,256.474076,258.24398-114.827355,258.24398-256.474076,258.24398" transform="matrix(.781333 0 0 0.775978 250 250)" fill="none" stroke="#000" stroke-width="15" stroke-linecap="round"/>

		<path d="M121.196499,-227.64878c43.991828,23.794732,80.291193,60.140012,104.17365,104.278791" transform="matrix(.890752 0 0 0.884659 250 250)" fill="none" stroke="#000" stroke-width="15" stroke-linecap="round"/>

	</g>
<text x="0" y="100%" textLength="50%">isnilo</text>
</svg>
